<svg id="HAMZAT_WASAL_copy_8" data-name="HAMZAT WASAL copy 8" xmlns="http://www.w3.org/2000/svg" viewBox="0 0 449.89 259.54"><defs><style>.cls-1{fill:#29d664;}</style></defs><path class="cls-1" d="M534.67,572a198.91,198.91,0,0,0-45.13,11.08l-.39.14-.08,0a201.3,201.3,0,0,0-102.52,86.52A89.57,89.57,0,0,0,361.3,646.9a235.2,235.2,0,0,1,61.64-65.76,89.19,89.19,0,0,1,27.74-170.55h0q3.93-.36,7.95-.36A88.84,88.84,0,0,1,517,432l.21.18c1.4,1.25,2.82,2.48,4.24,3.71l-.13.11a83.16,83.16,0,0,0-20.68,26.09c-1.51-1.28-3-2.57-4.49-3.89t0,0c-.44-.42-.91-.81-1.37-1.2l-.08-.07A55.74,55.74,0,1,0,422.73,542h0a55.83,55.83,0,0,0,54.6,9.9l.22-.08c.35-.14.69-.27,1-.39l.12-.05.36-.14a234.15,234.15,0,0,1,25.43-7.71A83.26,83.26,0,0,0,534.67,572Z" transform="translate(-315.05 -410.23)"/><path class="cls-1" d="M544.61,494.45l3.15,2a376.17,376.17,0,0,0,68.83,33.35q15,5.49,30.58,9.7,5,1.37,10.09,2.58a376.48,376.48,0,0,0,38.1,7.13,381.41,381.41,0,0,0,51.11,3.41q8.92,0,17.76-.41a89.74,89.74,0,0,1,.72-33.52q-9.18.5-18.48.49-16.51,0-32.64-1.51l-5.06-.52q-16.8-1.82-33.1-5.22c-1.49-.31-3-.63-4.47-1q-7.12-1.56-14.12-3.44-15.66-4.17-30.71-9.76a343.54,343.54,0,0,1-52.45-24.64l-1.5,1.19c-5,4-10.16,7.89-15.42,11.65C552.87,488.89,548.7,491.75,544.61,494.45Z" transform="translate(-315.05 -410.23)"/><path class="cls-1" d="M710.52,499.41a89.23,89.23,0,0,1-1.06,13.76l-.27,0c-11-1.18-22-2.92-32.7-5.17l-.07,0a54.68,54.68,0,0,0,.66-8.54,55.73,55.73,0,0,0-91.76-42.53l-.08.07c-.46.39-.93.78-1.37,1.2t0,0c-1.49,1.32-3,2.61-4.49,3.89q-3.33,2.83-6.72,5.6Q571,469,569.3,470.34q-7.45,6-15.21,11.5-6.93,5-14.09,9.63l-3.68,2.36c-1.36.86-2.72,1.72-4.09,2.56a376.12,376.12,0,0,1-68.82,33.36q-15,5.49-30.58,9.71c-1.72.46-3.45.92-5.19,1.36-.79-.59-1.56-1.21-2.32-1.85l-.62-.52a52,52,0,0,1-16.47-27.4q7.41-1.62,14.68-3.57,15.66-4.17,30.71-9.77a342.73,342.73,0,0,0,57.07-27.37q11.52-6.88,22.45-14.64c2.31-1.63,4.59-3.3,6.86-5q9.53-7.12,18.54-14.85c1.42-1.23,2.84-2.46,4.24-3.71L563,432a88.84,88.84,0,0,1,58.36-21.75q4,0,7.95.36h0A89.17,89.17,0,0,1,710.52,499.41Z" transform="translate(-315.05 -410.23)"/><path class="cls-1" d="M380.23,549.75a382.85,382.85,0,0,1-46.7,2.85q-8.92,0-17.76-.41a89.74,89.74,0,0,0-.72-33.52q9.18.5,18.48.49,17.06,0,33.71-1.63c0,.13,0,.25.07.38A92.09,92.09,0,0,0,380.23,549.75Z" transform="translate(-315.05 -410.23)"/><path class="cls-1" d="M718.69,646.9a89.57,89.57,0,0,0-25.25,22.87,201.3,201.3,0,0,0-102.52-86.52l-.08,0-.39-.14A198.91,198.91,0,0,0,545.32,572a83.26,83.26,0,0,0,30.16-28.44,234.15,234.15,0,0,1,25.43,7.71l.36.14.12.05c.35.12.69.25,1,.39l.22.08a55.84,55.84,0,0,0,50.52-6.77l3.15.77c11.94,2.89,24.18,5.21,36.41,6.92a89.34,89.34,0,0,1-35.68,28.29A235.2,235.2,0,0,1,718.69,646.9Z" transform="translate(-315.05 -410.23)"/></svg>